<svg width="20" height="20" viewBox="0 0 20 20" fill="none" xmlns="http://www.w3.org/2000/svg">
<path d="M10.0043 0.00285711C8.07572 0.00285711 6.67572 0.0257143 5.83286 0.07C5.08129 0.0989681 4.3368 0.226732 3.61857 0.45C2.88779 0.710252 2.22407 1.12986 1.67553 1.67839C1.127 2.22692 0.707395 2.89064 0.447143 3.62143C0.223875 4.33965 0.096111 5.08414 0.0671429 5.83571C0.0228572 6.68429 0 8.07857 0 10.0071C0 11.9357 0.0228572 13.3357 0.0671429 14.1786C0.0942858 14.9286 0.221429 15.6786 0.447143 16.3929C0.707143 17.1229 1.12571 17.7871 1.67571 18.3357C2.21857 18.8814 2.88429 19.2871 3.61857 19.5186C4.32857 19.7729 5.07572 19.9157 5.83286 19.9414C6.68143 19.9857 8.07572 20.0086 10.0043 20.0086C11.9329 20.0086 13.3329 19.9857 14.1757 19.9414C14.9273 19.9125 15.6718 19.7847 16.39 19.5614C17.1203 19.3003 17.7836 18.8804 18.332 18.332C18.8804 17.7835 19.3003 17.1203 19.5614 16.39C19.7862 15.6719 19.9129 14.9338 19.9414 14.1757C19.9857 13.3271 20.0086 11.9329 20.0086 10.0043C20.0086 8.07572 19.9943 6.69 19.9643 5.84714C19.9244 5.09029 19.789 4.3415 19.5614 3.61857C19.3013 2.88793 18.8819 2.22431 18.3337 1.67578C17.7854 1.12726 17.122 0.707575 16.3914 0.447143C15.6732 0.223875 14.9287 0.0961109 14.1771 0.0671428C13.3267 0.0223809 11.9362 0 10.0057 0L10.0043 0.00285711ZM9.29 18.2886C8.09953 18.2886 7.17571 18.2738 6.51857 18.2443C5.70174 18.2303 4.89018 18.1103 4.10429 17.8871C3.66952 17.7162 3.27464 17.4575 2.9443 17.1271C2.61396 16.7968 2.35524 16.4019 2.18429 15.9671C1.96115 15.1813 1.84109 14.3697 1.82714 13.5529C1.79714 12.8986 1.78286 11.9814 1.78286 10.7814V9.35286C1.78286 8.16238 1.79762 7.23857 1.82714 6.58143C1.83571 5.76571 1.95571 4.95286 2.18429 4.16714C2.34571 3.72729 2.60094 3.32784 2.93225 2.99653C3.26355 2.66522 3.663 2.41 4.10286 2.24857C4.88875 2.02543 5.70031 1.90538 6.51714 1.89143C7.17143 1.86143 8.08857 1.84714 9.28857 1.84714H10.7171C11.9076 1.84714 12.8314 1.8619 13.4886 1.89143C14.3043 1.9 15.1171 2.02 15.9029 2.24857C16.343 2.40982 16.7427 2.66497 17.0743 2.99629C17.4058 3.32761 17.6613 3.72714 17.8229 4.16714C18.0514 4.95143 18.1714 5.76714 18.18 6.58143C18.2086 7.20714 18.2243 8.12429 18.2243 9.35286V10.7814C18.2243 11.9719 18.2095 12.8957 18.18 13.5529C18.1661 14.3697 18.046 15.1813 17.8229 15.9671C17.6519 16.4019 17.3932 16.7968 17.0628 17.1271C16.7325 17.4575 16.3376 17.7162 15.9029 17.8871C15.12 18.1157 14.3029 18.2357 13.4886 18.2443C12.8643 18.2729 11.9457 18.2886 10.7171 18.2886H9.29ZM15.3614 3.43143C15.1141 3.42981 14.8719 3.50203 14.6658 3.63884C14.4598 3.77565 14.2992 3.97084 14.2047 4.19941C14.1102 4.42799 14.0861 4.67957 14.1354 4.92195C14.1847 5.16433 14.3052 5.38649 14.4814 5.56C14.6516 5.73751 14.8716 5.85919 15.1124 5.90893C15.3532 5.95867 15.6034 5.93414 15.83 5.83857C15.9777 5.77415 16.1101 5.67921 16.2186 5.56C16.4471 5.32 16.5843 5.01 16.6114 4.68C16.6059 4.3502 16.4725 4.03545 16.2392 3.80222C16.006 3.56898 15.6912 3.43694 15.3614 3.43143ZM10.0043 5.03143C9.12529 5.02583 8.26125 5.25888 7.50429 5.70571C6.74714 6.14429 6.11714 6.77429 5.67571 7.53429C5.23687 8.29438 5.00584 9.1566 5.00584 10.0343C5.00584 10.912 5.23687 11.7742 5.67571 12.5343C6.11626 13.2927 6.74754 13.9228 7.50687 14.3618C8.2662 14.8009 9.12717 15.0337 10.0043 15.0371C11.3296 15.0323 12.5993 14.5036 13.5364 13.5664C14.4736 12.6293 15.0023 11.3596 15.0071 10.0343C15.0071 9.16286 14.7743 8.29143 14.3329 7.53429C13.8942 6.77496 13.2636 6.14434 12.5043 5.70571C11.7473 5.25888 10.8833 5.02583 10.0043 5.03143ZM10.0043 13.2457C9.15181 13.2457 8.33424 12.9071 7.73144 12.3043C7.12865 11.7015 6.79 10.8839 6.79 10.0314C6.79 9.17895 7.12865 8.36138 7.73144 7.75859C8.33424 7.15579 9.15181 6.81714 10.0043 6.81714C10.8568 6.81714 11.6743 7.15579 12.2771 7.75859C12.8799 8.36138 13.2186 9.17895 13.2186 10.0314C13.2186 10.8839 12.8799 11.7015 12.2771 12.3043C11.6743 12.9071 10.8568 13.2457 10.0043 13.2457Z" fill="#FCFDF3"/>
</svg>
