<svg width="22" height="20" viewBox="0 0 22 20" fill="none" xmlns="http://www.w3.org/2000/svg">
<path d="M4.42105 2.22333C4.42076 2.8127 4.18758 3.37782 3.77282 3.79436C3.35806 4.2109 2.79569 4.44474 2.20942 4.44444C1.62315 4.44415 1.06101 4.20974 0.646667 3.79278C0.23232 3.37583 -0.000292857 2.81048 2.76715e-07 2.22111C0.000293411 1.63174 0.233469 1.06663 0.64823 0.650088C1.06299 0.233549 1.62536 -0.000294407 2.21163 2.78179e-07C2.7979 0.000294963 3.36004 0.234704 3.77439 0.65166C4.18873 1.06862 4.42135 1.63396 4.42105 2.22333ZM4.48737 6.09H0.066316V20.0011H4.48737V6.09ZM11.4726 6.09H7.07368V20.0011H11.4284V12.7011C11.4284 8.63444 16.7005 8.25667 16.7005 12.7011V20.0011H21.0663V11.19C21.0663 4.33444 13.2632 4.59 11.4284 7.95667L11.4726 6.09Z" fill="#FCFDF3"/>
</svg>
